<?xml version="1.0" encoding="iso-8859-1"?>
<!-- Generator: Adobe Illustrator 18.0.0, SVG Export Plug-In . SVG Version: 6.00 Build 0)  -->
<!DOCTYPE svg PUBLIC "-//W3C//DTD SVG 1.1//EN" "http://www.w3.org/Graphics/SVG/1.1/DTD/svg11.dtd">
<svg version="1.1" id="Capa_1" xmlns="http://www.w3.org/2000/svg" xmlns:xlink="http://www.w3.org/1999/xlink" x="0px" y="0px"
	 viewBox="0 0 213.914 213.914" style="enable-background:new 0 0 213.914 213.914;" xml:space="preserve">
<g>
	<path style="fill-rule:evenodd;clip-rule:evenodd;fill:#D56C2B;" d="M97.798,2.359c3.1-2.879,19.709-5.094,26.354,5.758
		c6.644,10.851,3.101,8.194,6.865,15.059c3.764,6.865,3.764,7.752,0.221,12.623c-3.543,4.873-7.308,8.638-4.208,11.959
		c3.101,3.322,4.43,5.094,1.329,9.744c-3.101,4.65,7.529,9.966,3.321,15.724c-4.207,5.758-41.855,7.529-44.291,0.886
		c-2.435-6.643,1.551-11.294-0.885-14.616c-2.437-3.321-6.201-6.643,0-11.294c3.595-2.696-1.604-5.244-4.111-9.912
		c-2.848-5.299-1.05-11.959,0.346-14.005C86.059,19.412,85.396,1.031,97.798,2.359z"/>
	<path style="fill-rule:evenodd;clip-rule:evenodd;fill:#FBD9BD;" d="M94.235,199.799c-2.929,4.24-6.83,6.68-7.805,9.738
		c-0.551,1.729-0.142,3.916,1.615,4.134c7.563,0.935,9.76-2.78,12.452-3.534c4.654-1.306,4.773-3.982,2.891-10.338
		C101.506,193.443,96.592,195.832,94.235,199.799z"/>
	<path style="fill-rule:evenodd;clip-rule:evenodd;fill:#FBD9BD;" d="M89.82,119.219h34.599l-4.415,80.58h-9.154l-1.862-61.287
		c-0.147-4.859-3.588-4.888-3.736,0l-1.862,61.287h-9.153L89.82,119.219z"/>
	<polygon style="fill-rule:evenodd;clip-rule:evenodd;fill:#FFD06E;" points="127.715,60.22 124.419,119.219 106.837,119.219 
		89.82,119.219 86.524,60.22 	"/>
	<path style="fill-rule:evenodd;clip-rule:evenodd;fill:#FFD06E;" d="M122.655,67.003l5.008,34.057
		c0.61,4.153,8.886,1.878,8.806-1.961l-0.653-31.073C135.604,58.027,121.275,57.616,122.655,67.003z"/>
	<path style="fill-rule:evenodd;clip-rule:evenodd;fill:#FBD9BD;" d="M126.232,123.968L126.232,123.968
		c-0.334-0.225-0.751,0.227-0.781,0.622l-0.436,5.84c-0.029,0.395,0.35,0.591,0.684,0.816l0,0c0.334,0.225,0.751-0.227,0.78-0.622
		l0.438-5.84C126.946,124.389,126.635,124.021,126.232,123.968z"/>
	<path style="fill-rule:evenodd;clip-rule:evenodd;fill:#FBD9BD;" d="M125.436,126.465l0.19-2.511l8.297,1.193l-0.191,2.512
		C132.929,135.221,124.495,135.645,125.436,126.465z"/>
	<path style="fill-rule:evenodd;clip-rule:evenodd;fill:#FBD9BD;" d="M125.536,124.693l1.793-24.122
		c1.549-6.392,10.431-6.249,9.221,1.675l-2.791,23.605L125.536,124.693z"/>
	<path style="fill-rule:evenodd;clip-rule:evenodd;fill:#FFD06E;" d="M91.26,67.003l-5.008,34.057
		c-0.611,4.153-8.887,1.878-8.806-1.961L78.1,68.025C78.31,58.027,92.64,57.616,91.26,67.003z"/>
	<path style="fill-rule:evenodd;clip-rule:evenodd;fill:#FBD9BD;" d="M87.682,123.968L87.682,123.968
		c0.334-0.225,0.751,0.227,0.78,0.622l0.438,5.84c0.029,0.395-0.35,0.591-0.684,0.816h-0.001c-0.334,0.225-0.751-0.227-0.781-0.622
		l-0.437-5.84C86.968,124.389,87.279,124.021,87.682,123.968z"/>
	<path style="fill-rule:evenodd;clip-rule:evenodd;fill:#FBD9BD;" d="M88.479,126.465l-0.191-2.511l-8.297,1.193l0.19,2.512
		C80.985,135.221,89.421,135.645,88.479,126.465z"/>
	<path style="fill-rule:evenodd;clip-rule:evenodd;fill:#FBD9BD;" d="M88.38,124.693l-1.793-24.122
		c-1.549-6.392-10.432-6.249-9.222,1.675l2.792,23.605L88.38,124.693z"/>
	<polygon style="fill-rule:evenodd;clip-rule:evenodd;fill:#B24D1F;" points="89.82,119.219 91.101,142.599 123.048,142.599 
		124.419,119.219 	"/>
	<path style="fill-rule:evenodd;clip-rule:evenodd;fill:#FBD9BD;" d="M120.024,199.799c2.929,4.24,6.83,6.68,7.804,9.738
		c0.551,1.729,0.143,3.916-1.615,4.134c-7.562,0.935-9.76-2.78-12.451-3.534c-4.655-1.306-4.774-3.982-2.892-10.338
		C112.754,193.443,117.667,195.832,120.024,199.799z"/>
	<path style="fill-rule:evenodd;clip-rule:evenodd;fill:#647B98;" d="M88.885,205.866c-1.138,1.233-2.05,2.398-2.455,3.671
		c-1.424,4.47,2.557,4.588,5.81,4.168c4.337-0.56,6.145-2.977,8.258-3.568c4.182-1.173,4.703-3.453,3.399-8.512
		c-0.179,4.413-4.307,5.613-8.891,7.787C90.424,211.586,86.728,209.434,88.885,205.866z"/>
	<path style="fill-rule:evenodd;clip-rule:evenodd;fill:#647B98;" d="M125.375,205.866c1.138,1.233,2.051,2.398,2.455,3.671
		c1.631,5.116-4.179,4.73-7.463,3.841c-3.186-0.863-4.781-2.73-6.604-3.241c-4.182-1.173-4.703-3.453-3.4-8.512
		c0.179,4.413,4.307,5.613,8.891,7.787C123.838,211.586,127.532,209.434,125.375,205.866z"/>
	<path style="fill-rule:evenodd;clip-rule:evenodd;fill:#D56C2B;" d="M115.841,8.695c4.069,3.638,6.275,7.219,5.415,11.73
		c-0.86,4.511,0.104,7.8,5.238,9.985c5.135,2.186,3.467,2.933,2.955,8.084c-0.317,3.205,2.642,5.74,6.148,5.316
		c0.663-0.08-3.811-1.133-3.627-4.381c0.295-5.229,4.621-8.637-0.431-12.955c-5.053-4.317-5.525-5.742-4.575-8.947
		c0.949-3.205-1.569-7.894-6.696-12.232C114.062,0.043,111.771,5.057,115.841,8.695z"/>
	<path style="fill-rule:evenodd;clip-rule:evenodd;fill:#D56C2B;" d="M95.428,28.15c-3.776,3.941-5.722,7.404-4.516,11.836
		c1.205,4.431,0.499,7.783-4.452,10.359c-4.951,2.576-3.23,3.191-2.323,8.287c0.565,3.172-2.19,5.927-5.719,5.775
		c-0.668-0.029,3.711-1.424,3.277-4.648c-0.698-5.19-5.274-8.255-0.569-12.949c4.704-4.695,3.169-5.448,1.975-8.569
		c-1.193-3.123,2.773-8.759,7.629-13.418C120.388-3.636,99.205,24.209,95.428,28.15z"/>
	<path style="fill-rule:evenodd;clip-rule:evenodd;fill:#D56C2B;" d="M97.868,8.695c-4.069,3.638-6.275,7.219-5.415,11.73
		c0.86,4.511-0.104,7.8-5.238,9.985c-5.135,2.186-3.466,2.933-2.955,8.084c0.318,3.205-2.642,5.74-6.147,5.316
		c-0.663-0.08,3.81-1.133,3.627-4.381c-0.296-5.229-4.622-8.637,0.431-12.955c5.052-4.317,5.525-5.742,4.575-8.947
		c-0.95-3.205,1.568-7.894,6.696-12.232C99.646,0.043,101.937,5.057,97.868,8.695z"/>
	<path style="fill-rule:evenodd;clip-rule:evenodd;fill:#D56C2B;" d="M119.502,27.196c3.608,4.095,5.407,7.637,4.018,12.014
		c-1.391,4.377-0.824,7.757,4.016,10.537c4.839,2.78,3.094,3.323,1.975,8.376c-0.696,3.146,1.941,6.014,5.473,6.01
		c0.668-0.002-3.648-1.577-3.081-4.78c0.914-5.157,5.614-8.026,1.11-12.914c-4.504-4.888-2.939-5.576-1.615-8.646
		c1.323-3.069-2.406-8.865-7.062-13.723C95.89-5.604,115.893,23.101,119.502,27.196z"/>
	<path style="fill-rule:evenodd;clip-rule:evenodd;fill:#FBD9BD;" d="M115.107,39.773v20.564c-4.394,5.775-11.583,5.576-15.977,0
		V39.773C99.131,29.206,115.107,29.207,115.107,39.773z"/>
	<path style="fill-rule:evenodd;clip-rule:evenodd;fill:#ECC2A0;" d="M115.107,39.773v13.104c-3.022,2.366-5.937,3.691-7.988,3.691
		c-2.052,0-4.966-1.324-7.988-3.69V39.773C99.131,29.206,115.107,29.206,115.107,39.773z"/>
	<path style="fill-rule:evenodd;clip-rule:evenodd;fill:#FBD9BD;" d="M107.119,53.313c-5.201,0-16.189-8.179-19.586-19.89
		c-3.43-11.827,3.029-28.789,19.586-28.789c16.558,0,23.017,16.962,19.586,28.789C123.308,45.136,112.321,53.313,107.119,53.313z"/>
	<path style="fill-rule:evenodd;clip-rule:evenodd;fill:#FF386A;" d="M100.853,41.521c2.651-2.565,4.719-0.641,6.266-0.641
		c1.548,0,3.615-1.925,6.266,0.641C111.961,48.289,102.743,48.498,100.853,41.521z"/>
	<path style="fill-rule:evenodd;clip-rule:evenodd;fill:#C8204A;" d="M100.854,41.521c2.65-2.565,4.717-0.641,6.265-0.641
		c1.548,0,3.615-1.925,6.266,0.641C109.332,43.519,103.582,42.586,100.854,41.521z"/>
	
		<ellipse transform="matrix(-0.3946 -0.9188 0.9188 -0.3946 90.0246 125.9884)" style="fill-rule:evenodd;clip-rule:evenodd;fill:#FBD9BD;" cx="86.515" cy="33.338" rx="5.701" ry="3.297"/>
	
		<ellipse transform="matrix(0.3946 -0.9188 0.9188 0.3946 46.9653 137.9616)" style="fill-rule:evenodd;clip-rule:evenodd;fill:#FBD9BD;" cx="128.183" cy="33.338" rx="5.701" ry="3.297"/>
	<path style="fill-rule:evenodd;clip-rule:evenodd;fill:#D56C2B;" d="M98.57,9.9c1.275,6.197,7.836,9.477,14.033,10.389
		c6.196,0.912,11.664,0.911,8.201,5.104c-3.463,4.191-1.458,8.02,1.823,10.389c3.28,2.369,2.186,8.748-0.73,12.758
		c-2.916,4.01-3.644,7.472-0.183,11.299c3.464,3.828,1.641,3.973-1.275,8.711c-1.814,2.949-0.43,6.37,2.854,7.156
		c0.621,0.148-2.805-2.372-1.088-5.408c2.765-4.885,6.618-6.631,4.249-12.463c-2.369-5.833-0.911-6.015,1.458-8.748
		c2.369-2.734,3.28-9.66,0.365-15.31c-2.917-5.649,2.004-3.826,1.457-10.752C129.188,16.098,112.239-9.418,98.57,9.9z"/>
	<path style="fill-rule:evenodd;clip-rule:evenodd;fill:#D56C2B;" d="M109.492,4.668c-4.267,2.47-19.013,16.806-20.674,21.813
		c-1.662,5.008,0.063,9.108,1.066,12.788C86.291,38.37,77.372-1.847,109.492,4.668z"/>
	<g>
		<polygon style="fill-rule:evenodd;clip-rule:evenodd;fill:#B24D1F;" points="97.938,55.801 93.61,59.332 100.861,70.585 
			107.119,64.647 		"/>
		<polygon style="fill-rule:evenodd;clip-rule:evenodd;fill:#B24D1F;" points="116.481,55.71 120.991,59.514 113.377,70.585 
			107.119,64.647 		"/>
	</g>
	<path style="fill-rule:evenodd;clip-rule:evenodd;fill:#FFD06E;" d="M126.724,108.698l0.604-8.127
		c1.549-6.392,10.431-6.249,9.221,1.675l-0.763,6.452H126.724z"/>
	<path style="fill-rule:evenodd;clip-rule:evenodd;fill:#FFD06E;" d="M87.19,108.698l-0.603-8.127
		c-1.549-6.392-10.432-6.249-9.222,1.675l0.764,6.452H87.19z"/>
	<g style="opacity:0.2;">
		<path style="fill-rule:evenodd;clip-rule:evenodd;" d="M129.248,19.395c0.3,0.896,0.784,2.027,1.746,3.781
			c1.729,3.153,2.664,5.045,2.826,6.641c0.713,2.942-1.655,5.791-1.871,9.613c-0.184,3.248,4.29,4.301,3.627,4.381
			c-2.352,0.284-4.458-0.762-5.493-2.449c0.002,0.242-0.001,0.484-0.008,0.723c0.239,1.048,1.064,2.347,2.915,4.354
			c4.504,4.888-0.195,7.757-1.11,12.915c-0.132,0.75,0.003,1.411,0.279,1.983c0.971,0.587,1.834,1.41,2.476,2.468
			c0.334,0.219,0.502,0.327,0.327,0.328l-0.141-0.002c0.581,1.076,0.94,2.374,0.972,3.895l0.654,31.073
			c0.001,0.03-0.001,0.061-0.001,0.091l0,0l0.01,0.04l0.01,0.04c0.016,0.065,0.03,0.131,0.044,0.198l0.001,0.006l0.008,0.042
			l0.009,0.041c0.01,0.055,0.02,0.11,0.028,0.166l0.014,0.09l0.007,0.044l0.019,0.148l0.016,0.157l0.01,0.117
			c0.005,0.068,0.01,0.137,0.013,0.207l0.004,0.088c0.002,0.081,0.004,0.164,0.004,0.248v0.052c0,0.093-0.003,0.188-0.007,0.283
			l-0.002,0.052c-0.004,0.102-0.011,0.206-0.019,0.311l-0.001,0.007l-0.001,0.015c-0.008,0.109-0.02,0.221-0.033,0.333l-0.001,0.015
			c-0.015,0.117-0.03,0.236-0.049,0.357l-2.706,22.891l0.08,0.011l-0.19,2.512c-0.38,3.577-2.468,5.556-4.464,5.677v-73.03
			c0.099,0.014,0.197,0.029,0.295,0.047c-0.194-0.7-0.226-1.456-0.055-2.229c0.898-4.057,2.2-5.206,0.172-6.941
			c0.657,1.379,0.628,2.799-0.412,4.797V19.395z M126.025,90.072l-1.628,29.146l0,0l-4.413,80.551l0.019,0.029
			c1.712,2.478,3.756,4.343,5.354,6.074l-0.004-0.007c1.138,1.233,2.051,2.398,2.455,3.671c0.438,1.372,0.339,2.349-0.102,3.025
			c-0.292,0.592-0.788,1.018-1.515,1.108l-0.225,0.026c-1.609,0.436-3.816,0.149-5.46-0.277l-0.006-0.001l-0.006-0.002l-0.149-0.039
			l-0.003-0.001l-0.136-0.037l-0.048-0.014l-0.108-0.032l-0.144-0.044c-2.899-0.908-4.43-2.627-6.167-3.113
			c-4.655-1.306-4.774-3.982-2.892-10.338h-0.02l-1.738-57.2h-1.992v-23.38v-0.122V0.003c5.978-0.076,13.18,1.822,17.032,8.114
			c4.945,8.079,4.246,8.671,5.118,11.277v36.584c-0.245,0.474-0.548,0.979-0.911,1.523c-0.594,0.892-0.683,1.807-0.47,2.744
			c0.455-0.023,0.918-0.004,1.381,0.06v73.03c-1.262,0.076-2.486-0.59-3.218-2.066c-0.114,0.051-0.238,0.054-0.353-0.023l0,0
			c-0.334-0.226-0.714-0.421-0.684-0.816l0.437-5.84c0.009-0.118,0.052-0.241,0.117-0.35l1.155-15.542l0.604-8.127
			c0.024-0.097,0.049-0.192,0.076-0.287l0.003-0.008v-0.001l0.003-0.01c0.024-0.084,0.051-0.168,0.077-0.25l0.003-0.009l0.003-0.009
			l0.007-0.019l0.002-0.009L126.025,90.072L126.025,90.072z M124.397,119.219h-17.3H124.397z"/>
	</g>
</g>
<g>
</g>
<g>
</g>
<g>
</g>
<g>
</g>
<g>
</g>
<g>
</g>
<g>
</g>
<g>
</g>
<g>
</g>
<g>
</g>
<g>
</g>
<g>
</g>
<g>
</g>
<g>
</g>
<g>
</g>
</svg>
